# xmcd
#
# Track frame offsets: 
#        150
#        15556
#        27757
#        39446
#        50981
#        65271
#        76222
#        86068
#        96642
#        108550
#        122920
#        136847
#        147425
#        161785
#        173501
#        185741
#        201686
#        212670
#
# Disc length: 2952 seconds
#
# Revision: 0
# Processed by: cddbd v1.5.2PL0 Copyright (c) Steve Scherf et al.
# Submitted via: ExactAudioCopy v0.95a4
#
DISCID=0b0b8612
DTITLE=Various Artist - This Is Country Superstars 2
DYEAR=2007
DGENRE=Country
TTITLE0=01   War Is Hell (On The Homefront, Too)   - T.G. Sheppard
TTITLE1=02   Loving You Is Killing Me   - Alabama
TTITLE2=03   Oh Lonesome Me   -  Don Gibson
TTITLE3=04   Are You Ever Gonna Love Me  -  Holly Dunn
TTITLE4=05   Hooked On A Feeling   -   B.J. Thomas
TTITLE5=06   Honky Tonk Angels   -   Dolly Parton
TTITLE6=07   Put Your Dreams Away   -   Mickey Gilley
TTITLE7=08   Far, Far Away   -   Don Gibson
TTITLE8=09   Working Man's Blues   -   Commander Cody and His Lost Plane
TTITLE8=t Airmen
TTITLE9=10   Darlene   -   Graham T. Brown
TTITLE10=11   Teddy Bear Song   -   Barbara Fairchild
TTITLE11=12   What Am I Living For  -   Carl Perkins   
TTITLE12=13   Woke Up In Love   -   Exile
TTITLE13=14   The Happiest Girl In The Whole U.S.A.   -  Donna Fargo
TTITLE14=15   On The Sunny Banks   -   Oak Ridge Boys
TTITLE15=16   Mi Vida Loca   -   Pam Tillis
TTITLE16=17   Don't Worry About Me Baby   -   Janie Fricke
TTITLE17=18   After The Dance   -   Buck Owens
EXTD=
EXTT0=
EXTT1=
EXTT2=
EXTT3=
EXTT4=
EXTT5=
EXTT6=
EXTT7=
EXTT8=
EXTT9=
EXTT10=
EXTT11=
EXTT12=
EXTT13=
EXTT14=
EXTT15=
EXTT16=
EXTT17=
PLAYORDER=
